<svg width="387" height="399" viewBox="0 0 387 399" fill="none" xmlns="http://www.w3.org/2000/svg">
<path d="M245.683 89.7338H141.404C139.027 89.7368 136.749 90.7353 135.069 92.5101C133.389 94.2849 132.443 96.6911 132.44 99.2011V343.995L131.245 344.38L105.664 352.654C104.451 353.045 103.142 352.911 102.023 352.283C100.904 351.654 100.066 350.583 99.6944 349.303L23.6012 86.7737C23.2309 85.4931 23.3571 84.1096 23.9521 82.9273C24.5471 81.745 25.5621 80.8606 26.7742 80.4684L66.1953 67.7191L180.478 30.7712L219.899 18.0219C220.499 17.8269 221.129 17.7587 221.754 17.8213C222.379 17.884 222.986 18.0761 223.541 18.3868C224.095 18.6975 224.586 19.1207 224.986 19.6321C225.385 20.1434 225.685 20.733 225.869 21.367L245.319 88.4715L245.683 89.7338Z" fill="#F2F2F2"/>
<path d="M268.438 88.4715L244.996 7.59521C244.606 6.24766 243.969 4.99449 243.12 3.90731C242.271 2.82013 241.228 1.92025 240.05 1.25908C238.872 0.597922 237.582 0.188431 236.254 0.0540277C234.926 -0.0803761 233.586 0.0629407 232.31 0.475774L176.887 18.3943L62.6099 55.3484L7.18644 73.2733C4.61176 74.1083 2.45594 75.9882 1.19219 78.5004C-0.0715615 81.0126 -0.34 83.9517 0.445808 86.6727L80.5664 363.075C81.2047 365.271 82.4928 367.194 84.2415 368.56C85.9902 369.927 88.1076 370.665 90.2828 370.667C91.2896 370.668 92.2907 370.508 93.2525 370.194L131.245 357.912L132.44 357.521V356.201L131.245 356.586L92.9001 368.989C90.6274 369.72 88.1728 369.47 86.0746 368.293C83.9764 367.115 82.406 365.107 81.7078 362.709L1.59336 86.3003C1.24743 85.1118 1.12686 83.8629 1.23856 82.6251C1.35026 81.3873 1.69202 80.1849 2.2443 79.0868C2.79657 77.9887 3.54851 77.0165 4.45704 76.2258C5.36556 75.435 6.41283 74.8414 7.53889 74.4788L62.9624 56.554L177.239 19.6061L232.663 1.68129C233.517 1.40598 234.405 1.26561 235.298 1.26473C237.214 1.26927 239.079 1.92186 240.619 3.1269C242.159 4.33195 243.293 6.02613 243.855 7.96129L267.19 88.4715L267.56 89.7338H268.803L268.438 88.4715Z" fill="black"/>
<path d="M73.3087 80.6748C72.157 80.6739 71.0359 80.2832 70.1098 79.56C69.1837 78.8368 68.5014 77.8192 68.163 76.6564L60.4662 50.1026C60.2594 49.3893 60.1876 48.64 60.255 47.8974C60.3224 47.1548 60.5276 46.4335 60.859 45.7747C61.1903 45.1159 61.6413 44.5325 62.1861 44.0579C62.731 43.5832 63.359 43.2265 64.0343 43.0082L169.168 9.01183C170.532 8.57224 172.005 8.72217 173.264 9.42868C174.524 10.1352 175.466 11.3406 175.885 12.7803L183.582 39.3344C183.998 40.7749 183.856 42.3309 183.187 43.661C182.518 44.991 181.377 45.9865 180.014 46.4291L74.88 80.4255C74.3708 80.5905 73.8413 80.6745 73.3087 80.6748Z" fill="#0E44D2"/>
<path d="M113.628 28.3734C120.228 28.3734 125.579 22.7218 125.579 15.7503C125.579 8.77873 120.228 3.12717 113.628 3.12717C107.027 3.12717 101.677 8.77873 101.677 15.7503C101.677 22.7218 107.027 28.3734 113.628 28.3734Z" fill="#6C63FF"/>
<path d="M113.628 23.7436C117.807 23.7436 121.196 20.1649 121.196 15.7503C121.196 11.3357 117.807 7.75693 113.628 7.75693C109.448 7.75693 106.06 11.3357 106.06 15.7503C106.06 20.1649 109.448 23.7436 113.628 23.7436Z" fill="white"/>
<path d="M360.11 367.442H158.135C156.789 367.441 155.498 366.875 154.546 365.869C153.593 364.863 153.058 363.5 153.056 362.077V106.459C153.058 105.037 153.593 103.673 154.545 102.668C155.498 101.662 156.789 101.096 158.135 101.095H360.11C361.456 101.096 362.748 101.662 363.7 102.668C364.652 103.673 365.188 105.037 365.189 106.459V362.077C365.188 363.5 364.652 364.863 363.7 365.869C362.747 366.875 361.456 367.441 360.11 367.442Z" fill="#E6E6E6"/>
<path d="M267.189 88.4715H141.404C138.711 88.4755 136.129 89.6072 134.225 91.6186C132.32 93.6299 131.249 96.3567 131.245 99.2011V356.586L132.44 356.201V99.2011C132.443 96.6912 133.388 94.2849 135.069 92.5101C136.749 90.7353 139.027 89.7368 141.404 89.7338H267.56L267.189 88.4715ZM376.841 88.4715H141.404C138.711 88.4755 136.129 89.6072 134.225 91.6186C132.32 93.6299 131.249 96.3567 131.245 99.2011V388.27C131.249 391.115 132.32 393.842 134.225 395.853C136.129 397.864 138.711 398.996 141.404 399H376.841C379.534 398.996 382.116 397.864 384.02 395.853C385.925 393.842 386.996 391.115 387 388.27V99.2011C386.996 96.3567 385.925 93.6299 384.02 91.6186C382.116 89.6072 379.534 88.4755 376.841 88.4715ZM385.805 388.27C385.802 390.78 384.857 393.187 383.176 394.961C381.496 396.736 379.218 397.735 376.841 397.738H141.404C139.027 397.735 136.749 396.736 135.069 394.961C133.388 393.187 132.443 390.78 132.44 388.27V99.2011C132.443 96.6912 133.388 94.2849 135.069 92.5101C136.749 90.7353 139.027 89.7368 141.404 89.7338H376.841C379.218 89.7368 381.496 90.7353 383.176 92.5101C384.857 94.2849 385.802 96.6912 385.805 99.2011V388.27Z" fill="black"/>
<path d="M314.098 116.242H204.148C202.722 116.241 201.355 115.642 200.346 114.577C199.338 113.512 198.771 112.068 198.77 110.562V82.7911C198.771 81.2851 199.338 79.8412 200.347 78.7763C201.355 77.7114 202.722 77.1124 204.148 77.1107H314.098C315.524 77.1124 316.891 77.7114 317.899 78.7763C318.907 79.8412 319.475 81.2851 319.476 82.7911V110.562C319.475 112.068 318.907 113.512 317.899 114.577C316.891 115.642 315.524 116.241 314.098 116.242Z" fill="#0E44D2"/>
<path d="M259.123 79.0042C265.723 79.0042 271.074 73.3526 271.074 66.381C271.074 59.4095 265.723 53.7579 259.123 53.7579C252.522 53.7579 247.171 59.4095 247.171 66.381C247.171 73.3526 252.522 79.0042 259.123 79.0042Z" fill="#6C63FF"/>
<path d="M259.123 74.0697C263.143 74.0697 266.402 70.6274 266.402 66.381C266.402 62.1347 263.143 58.6924 259.123 58.6924C255.102 58.6924 251.843 62.1347 251.843 66.381C251.843 70.6274 255.102 74.0697 259.123 74.0697Z" fill="white"/>
</svg>
