<svg width="271" height="50" viewBox="0 0 271 50" fill="none" xmlns="http://www.w3.org/2000/svg">
<path d="M24.0848 30.048H11.5088L9.49281 36H0.900813L13.0928 2.304H22.5968L34.7888 36H26.1008L24.0848 30.048ZM21.9728 23.712L17.7968 11.376L13.6688 23.712H21.9728ZM48.6754 8.832C50.5634 8.832 52.2114 9.216 53.6194 9.984C55.0594 10.752 56.1634 11.76 56.9314 13.008V9.216H65.1394V35.952C65.1394 38.416 64.6434 40.64 63.6514 42.624C62.6914 44.64 61.2034 46.24 59.1874 47.424C57.2034 48.608 54.7234 49.2 51.7474 49.2C47.7794 49.2 44.5634 48.256 42.0994 46.368C39.6354 44.512 38.2274 41.984 37.8754 38.784H45.9874C46.2434 39.808 46.8514 40.608 47.8114 41.184C48.7714 41.792 49.9554 42.096 51.3634 42.096C53.0594 42.096 54.4034 41.6 55.3954 40.608C56.4194 39.648 56.9314 38.096 56.9314 35.952V32.16C56.1314 33.408 55.0274 34.432 53.6194 35.232C52.2114 36 50.5634 36.384 48.6754 36.384C46.4674 36.384 44.4674 35.824 42.6754 34.704C40.8834 33.552 39.4594 31.936 38.4034 29.856C37.3794 27.744 36.8674 25.312 36.8674 22.56C36.8674 19.808 37.3794 17.392 38.4034 15.312C39.4594 13.232 40.8834 11.632 42.6754 10.512C44.4674 9.392 46.4674 8.832 48.6754 8.832ZM56.9314 22.608C56.9314 20.56 56.3554 18.944 55.2034 17.76C54.0834 16.576 52.7074 15.984 51.0754 15.984C49.4434 15.984 48.0514 16.576 46.8994 17.76C45.7794 18.912 45.2194 20.512 45.2194 22.56C45.2194 24.608 45.7794 26.24 46.8994 27.456C48.0514 28.64 49.4434 29.232 51.0754 29.232C52.7074 29.232 54.0834 28.64 55.2034 27.456C56.3554 26.272 56.9314 24.656 56.9314 22.608ZM96.3256 22.176C96.3256 22.944 96.2776 23.744 96.1816 24.576H77.6056C77.7336 26.24 78.2616 27.52 79.1896 28.416C80.1496 29.28 81.3176 29.712 82.6936 29.712C84.7416 29.712 86.1656 28.848 86.9656 27.12H95.7016C95.2536 28.88 94.4376 30.464 93.2536 31.872C92.1016 33.28 90.6456 34.384 88.8856 35.184C87.1256 35.984 85.1576 36.384 82.9816 36.384C80.3576 36.384 78.0216 35.824 75.9736 34.704C73.9256 33.584 72.3256 31.984 71.1736 29.904C70.0216 27.824 69.4456 25.392 69.4456 22.608C69.4456 19.824 70.0056 17.392 71.1256 15.312C72.2776 13.232 73.8776 11.632 75.9256 10.512C77.9736 9.392 80.3256 8.832 82.9816 8.832C85.5736 8.832 87.8776 9.376 89.8936 10.464C91.9096 11.552 93.4776 13.104 94.5976 15.12C95.7496 17.136 96.3256 19.488 96.3256 22.176ZM87.9256 20.016C87.9256 18.608 87.4456 17.488 86.4856 16.656C85.5256 15.824 84.3256 15.408 82.8856 15.408C81.5096 15.408 80.3416 15.808 79.3816 16.608C78.4536 17.408 77.8776 18.544 77.6536 20.016H87.9256ZM116.976 8.928C120.112 8.928 122.608 9.952 124.464 12C126.352 14.016 127.296 16.8 127.296 20.352V36H119.136V21.456C119.136 19.664 118.672 18.272 117.744 17.28C116.816 16.288 115.568 15.792 114 15.792C112.432 15.792 111.184 16.288 110.256 17.28C109.328 18.272 108.864 19.664 108.864 21.456V36H100.656V9.216H108.864V12.768C109.696 11.584 110.816 10.656 112.224 9.984C113.632 9.28 115.216 8.928 116.976 8.928ZM131.367 22.56C131.367 19.808 131.879 17.392 132.903 15.312C133.959 13.232 135.383 11.632 137.175 10.512C138.967 9.392 140.967 8.832 143.175 8.832C144.935 8.832 146.535 9.2 147.975 9.936C149.447 10.672 150.599 11.664 151.431 12.912V0.48H159.639V36H151.431V32.16C150.663 33.44 149.559 34.464 148.119 35.232C146.711 36 145.063 36.384 143.175 36.384C140.967 36.384 138.967 35.824 137.175 34.704C135.383 33.552 133.959 31.936 132.903 29.856C131.879 27.744 131.367 25.312 131.367 22.56ZM151.431 22.608C151.431 20.56 150.855 18.944 149.703 17.76C148.583 16.576 147.207 15.984 145.575 15.984C143.943 15.984 142.551 16.576 141.399 17.76C140.279 18.912 139.719 20.512 139.719 22.56C139.719 24.608 140.279 26.24 141.399 27.456C142.551 28.64 143.943 29.232 145.575 29.232C147.207 29.232 148.583 28.64 149.703 27.456C150.855 26.272 151.431 24.656 151.431 22.608ZM163.946 22.56C163.946 19.808 164.458 17.392 165.482 15.312C166.538 13.232 167.962 11.632 169.754 10.512C171.546 9.392 173.546 8.832 175.754 8.832C177.642 8.832 179.29 9.216 180.698 9.984C182.138 10.752 183.242 11.76 184.01 13.008V9.216H192.218V36H184.01V32.208C183.21 33.456 182.09 34.464 180.65 35.232C179.242 36 177.594 36.384 175.706 36.384C173.53 36.384 171.546 35.824 169.754 34.704C167.962 33.552 166.538 31.936 165.482 29.856C164.458 27.744 163.946 25.312 163.946 22.56ZM184.01 22.608C184.01 20.56 183.434 18.944 182.282 17.76C181.162 16.576 179.786 15.984 178.154 15.984C176.522 15.984 175.13 16.576 173.978 17.76C172.858 18.912 172.298 20.512 172.298 22.56C172.298 24.608 172.858 26.24 173.978 27.456C175.13 28.64 176.522 29.232 178.154 29.232C179.786 29.232 181.162 28.64 182.282 27.456C183.434 26.272 184.01 24.656 184.01 22.608ZM201.996 36.384C200.556 36.384 199.372 35.968 198.444 35.136C197.548 34.272 197.1 33.216 197.1 31.968C197.1 30.688 197.548 29.616 198.444 28.752C199.372 27.888 200.556 27.456 201.996 27.456C203.404 27.456 204.556 27.888 205.452 28.752C206.38 29.616 206.844 30.688 206.844 31.968C206.844 33.216 206.38 34.272 205.452 35.136C204.556 35.968 203.404 36.384 201.996 36.384Z" fill="white"/>
<path d="M210.071 22.56C210.071 19.808 210.583 17.392 211.607 15.312C212.663 13.232 214.087 11.632 215.879 10.512C217.671 9.392 219.671 8.832 221.879 8.832C223.639 8.832 225.239 9.2 226.679 9.936C228.151 10.672 229.303 11.664 230.135 12.912V0.48H238.343V36H230.135V32.16C229.367 33.44 228.263 34.464 226.823 35.232C225.415 36 223.767 36.384 221.879 36.384C219.671 36.384 217.671 35.824 215.879 34.704C214.087 33.552 212.663 31.936 211.607 29.856C210.583 27.744 210.071 25.312 210.071 22.56ZM230.135 22.608C230.135 20.56 229.559 18.944 228.407 17.76C227.287 16.576 225.911 15.984 224.279 15.984C222.647 15.984 221.255 16.576 220.103 17.76C218.983 18.912 218.423 20.512 218.423 22.56C218.423 24.608 218.983 26.24 220.103 27.456C221.255 28.64 222.647 29.232 224.279 29.232C225.911 29.232 227.287 28.64 228.407 27.456C229.559 26.272 230.135 24.656 230.135 22.608ZM256.473 36.384C253.849 36.384 251.481 35.824 249.369 34.704C247.289 33.584 245.641 31.984 244.425 29.904C243.241 27.824 242.649 25.392 242.649 22.608C242.649 19.856 243.257 17.44 244.473 15.36C245.689 13.248 247.353 11.632 249.465 10.512C251.577 9.392 253.945 8.832 256.569 8.832C259.193 8.832 261.561 9.392 263.673 10.512C265.785 11.632 267.449 13.248 268.665 15.36C269.881 17.44 270.489 19.856 270.489 22.608C270.489 25.36 269.865 27.792 268.617 29.904C267.401 31.984 265.721 33.584 263.577 34.704C261.465 35.824 259.097 36.384 256.473 36.384ZM256.473 29.28C258.041 29.28 259.369 28.704 260.457 27.552C261.577 26.4 262.137 24.752 262.137 22.608C262.137 20.464 261.593 18.816 260.505 17.664C259.449 16.512 258.137 15.936 256.569 15.936C254.969 15.936 253.641 16.512 252.585 17.664C251.529 18.784 251.001 20.432 251.001 22.608C251.001 24.752 251.513 26.4 252.537 27.552C253.593 28.704 254.905 29.28 256.473 29.28Z" fill="#EDFF1F"/>
</svg>
